<?xml version="1.0" encoding="iso-8859-1"?>
<!-- Generator: Adobe Illustrator 16.0.0, SVG Export Plug-In . SVG Version: 6.00 Build 0)  -->
<!DOCTYPE svg PUBLIC "-//W3C//DTD SVG 1.1//EN" "http://www.w3.org/Graphics/SVG/1.1/DTD/svg11.dtd">
<svg version="1.1" id="Capa_1" xmlns="http://www.w3.org/2000/svg" xmlns:xlink="http://www.w3.org/1999/xlink" x="0px" y="0px"
	 width="254.191px" height="254.191px" viewBox="0 0 254.191 254.191" style="enable-background:new 0 0 254.191 254.191;"
	 xml:space="preserve">
<g>
	<g>
		<path d="M58.964,254.191c26.685,0,48.392-21.702,48.392-48.389V49.977L239.622,6.151c-0.94,0.454-1.598,1.395-1.598,2.506v135.306
			c-8.109-15.349-24.229-25.849-42.789-25.849c-26.694,0-48.405,21.712-48.405,48.395c0,26.681,21.711,48.388,48.405,48.388
			c26.68,0,48.393-21.702,48.393-48.388V8.663c0-1.549-1.27-2.802-2.802-2.802c-0.285,0-0.537,0.082-0.799,0.158l1.686-0.558
			c1.466-0.487,2.245-2.074,1.764-3.54c-0.494-1.467-2.081-2.266-3.553-1.779L103.657,45.298c-0.033,0.011-0.061,0.038-0.096,0.055
			c-0.194,0.071-0.359,0.191-0.525,0.301c-0.135,0.093-0.287,0.164-0.399,0.273c-0.135,0.121-0.224,0.28-0.329,0.427
			c-0.1,0.148-0.219,0.279-0.292,0.438c-0.066,0.153-0.091,0.317-0.135,0.476c-0.049,0.197-0.112,0.383-0.117,0.585
			c0,0.039-0.022,0.072-0.022,0.109v135.308c-8.121-15.351-24.242-25.852-42.789-25.852c-26.681,0-48.389,21.715-48.389,48.395
			C10.587,232.512,32.288,254.191,58.964,254.191z M195.241,209.293c-23.585,0-42.808-19.195-42.808-42.784
			c0-23.597,19.223-42.792,42.808-42.792c23.593,0,42.788,19.195,42.788,42.792C238.029,190.098,218.833,209.293,195.241,209.293z
			 M58.964,163.007c23.591,0,42.789,19.2,42.789,42.796c0,23.585-19.198,42.785-42.789,42.785c-23.59,0-42.785-19.2-42.785-42.785
			C16.184,182.207,35.369,163.007,58.964,163.007z"/>
	</g>
</g>
<g>
</g>
<g>
</g>
<g>
</g>
<g>
</g>
<g>
</g>
<g>
</g>
<g>
</g>
<g>
</g>
<g>
</g>
<g>
</g>
<g>
</g>
<g>
</g>
<g>
</g>
<g>
</g>
<g>
</g>
</svg>
